<svg xmlns="http://www.w3.org/2000/svg" viewBox="0 0 1440 320">
  <path fill="#fff" fill-opacity="1"
    d="M0,224L26.7,234.7C53.3,245,107,267,160,250.7C213.3,235,267,181,320,154.7C373.3,128,427,128,480,154.7C533.3,181,587,235,640,256C693.3,277,747,267,800,256C853.3,245,907,235,960,224C1013.3,213,1067,203,1120,208C1173.3,213,1227,235,1280,224C1333.3,213,1387,171,1413,149.3L1440,128L1440,320L1413.3,320C1386.7,320,1333,320,1280,320C1226.7,320,1173,320,1120,320C1066.7,320,1013,320,960,320C906.7,320,853,320,800,320C746.7,320,693,320,640,320C586.7,320,533,320,480,320C426.7,320,373,320,320,320C266.7,320,213,320,160,320C106.7,320,53,320,27,320L0,320Z">
  </path>
</svg>