<svg xmlns="http://www.w3.org/2000/svg" viewBox="0 0 1440 320">
  <path fill="#f3f4f5" fill-opacity="1"
    d="M0,32L26.7,69.3C53.3,107,107,181,160,218.7C213.3,256,267,256,320,240C373.3,224,427,192,480,197.3C533.3,203,587,245,640,234.7C693.3,224,747,160,800,133.3C853.3,107,907,117,960,133.3C1013.3,149,1067,171,1120,170.7C1173.3,171,1227,149,1280,170.7C1333.3,192,1387,256,1413,288L1440,320L1440,320L1413.3,320C1386.7,320,1333,320,1280,320C1226.7,320,1173,320,1120,320C1066.7,320,1013,320,960,320C906.7,320,853,320,800,320C746.7,320,693,320,640,320C586.7,320,533,320,480,320C426.7,320,373,320,320,320C266.7,320,213,320,160,320C106.7,320,53,320,27,320L0,320Z">
  </path>
</svg>